<svg xmlns="http://www.w3.org/2000/svg" version="1.1" xmlns:xlink="http://www.w3.org/1999/xlink" xmlns:svgjs="http://svgjs.dev/svgjs" viewBox="0 0 800 800"><defs><linearGradient x1="50%" y1="0%" x2="50%" y2="100%" id="gggyrate-grad"><stop stop-color="hsl(184, 74%, 44%)" stop-opacity="1" offset="0%"></stop><stop stop-color="hsl(332, 87%, 70%)" stop-opacity="1" offset="100%"></stop></linearGradient></defs><g stroke-width="1.5" stroke="url(#gggyrate-grad)" fill="none"><path d="M352.68905714738776 -403.55790063138846C372.06875288216816 -442.72639701601787 427.93136918814434 -442.72639701601787 447.31106492292474 -403.55790063138846L1219.457001316614 1156.7352531082695C1236.8175663415404 1191.8192988085852 1211.2946984143591 1232.9343427729764 1172.1459974288462 1232.9343427729764H-372.14587535853354C-411.2945763440466 1232.9343427729764 -436.8174442712276 1191.8192988085852 -419.4568792463019 1156.7352531082695L352.68905714738776 -403.55790063138846Z " transform="rotate(150, 400, 400)" opacity="1.00"></path><path d="M353.63527722514345 -387.4867230875107C372.6273790452283 -425.8718495444475 427.3727430250842 -425.8718495444475 446.36484484516905 -387.4867230875107L1203.067862510985 1141.6005675773542C1220.0812162354127 1175.9829323636638 1195.0688056667752 1216.275675448767 1156.7030787009721 1216.275675448767H-356.70295663065974C-395.06868359646256 1216.275675448767 -420.0810941650999 1175.9829323636638 -403.06774044067276 1141.6005675773542L353.63527722514345 -387.4867230875107Z " transform="rotate(147, 400, 400)" opacity="0.98"></path><path d="M354.5813752325861 -371.4156218375782C373.18588313797545 -409.01737836682247 426.81399479171205 -409.01737836682247 445.4185026971013 -371.4156218375782L1186.6786016350432 1126.4658057524937C1203.3447440589725 1160.146489624797 1178.8427908488784 1199.6169318306122 1141.260037902786 1199.6169318306122H-341.26015997309844C-378.842912919191 1199.6169318306122 -403.3448661292847 1160.146489624797 -386.6787237053561 1126.4658057524937L354.5813752325861 -371.4156218375782Z " transform="rotate(144, 400, 400)" opacity="0.96"></path><path d="M355.52759531034155 -355.3444595524895C373.7445093010351 -392.1628461540412 426.2553686286524 -392.1628461540412 444.47228261934606 -355.3444595524895L1170.289462829414 1111.3311049627891C1186.6083939528448 1144.310107921086 1162.6168981012945 1182.9582492476136 1125.817119174912 1182.9582492476136H-325.81724124522464C-362.61702017160695 1182.9582492476136 -386.60851602315705 1144.310107921086 -370.28958489972695 1111.3311049627891L355.52759531034155 -355.3444595524895Z " transform="rotate(141, 400, 400)" opacity="0.94"></path><path d="M356.4738153880968 -339.27329726740084C374.3031354640948 -375.3083139412599 425.6967424655927 -375.3083139412599 443.5260625415908 -339.27329726740084L1153.9003240237848 1096.1964041730846C1169.8720438467171 1128.473726217375 1146.3910053537104 1166.299566664615 1110.3742004470384 1166.299566664615H-310.37432251735083C-346.3911274240229 1166.299566664615 -369.87216591702935 1128.473726217375 -353.90044609409773 1096.1964041730846L356.4738153880968 -339.27329726740084Z " transform="rotate(138, 400, 400)" opacity="0.92"></path><path d="M357.42003546585227 -323.20213498231215C374.8617616271547 -358.4537817284786 425.1381163025328 -358.4537817284786 442.5798424638351 -323.20213498231215L1137.5111852181556 1081.0617033833803C1153.1356937405894 1112.6373445136644 1130.1651126061263 1149.6408840816164 1094.9312817191646 1149.6408840816164H-294.93140378947703C-330.16523467643884 1149.6408840816164 -353.1358158109017 1112.6373445136644 -337.5113072884686 1081.0617033833803L357.42003546585227 -323.20213498231215Z " transform="rotate(135, 400, 400)" opacity="0.90"></path><path d="M358.3662555436076 -307.1309726972234C375.4203877902145 -341.5992495156973 424.5794901394729 -341.5992495156973 441.6336223860799 -307.1309726972234L1121.1220464125267 1065.9270025936758C1136.3993436344617 1096.8009628099537 1113.9392198585424 1132.9822014986178 1079.4883629912906 1132.9822014986178H-279.4884850616032C-313.9393419288548 1132.9822014986178 -336.399465704774 1096.8009628099537 -321.1221684828394 1065.9270025936758L358.3662555436076 -307.1309726972234Z " transform="rotate(132, 400, 400)" opacity="0.88"></path><path d="M359.312475621363 -291.0598104121347C375.97901395327415 -324.744717302916 424.02086397641335 -324.744717302916 440.68740230832464 -291.0598104121347L1104.7329076068975 1050.7923018039712C1119.6629935283343 1080.964581106243 1097.713327110958 1116.3235189156192 1064.045444263417 1116.3235189156192H-264.0455663337295C-297.71344918127073 1116.3235189156192 -319.66311559864636 1080.964581106243 -304.73302967721025 1050.7923018039712L359.312475621363 -291.0598104121347Z " transform="rotate(129, 400, 400)" opacity="0.86"></path><path d="M360.25872621669646 -274.98863286825696C376.53767063391206 -307.89016983134564 423.4622683309317 -307.89016983134564 439.7412127481473 -274.98863286825696L1088.3437993188465 1035.657616273056C1102.9266739397847 1065.128214661321 1081.4874648809523 1099.6648515914096 1048.6025560531214 1099.6648515914096H-248.60261708827755C-281.48752591610855 1099.6648515914096 -302.92673497494053 1065.128214661321 -288.34386035400297 1035.657616273056L360.25872621669646 -274.98863286825696Z " transform="rotate(126, 400, 400)" opacity="0.84"></path><path d="M361.2049462944518 -258.9174705831682C377.0962967969717 -291.03563761856435 422.903642167872 -291.03563761856435 438.79499267039193 -258.9174705831682L1071.9546605132173 1020.5229154833514C1086.190323833657 1049.2918329576103 1065.2615721333682 1083.006169008411 1033.1596373252476 1083.006169008411H-233.15969836040375C-265.2616331685245 1083.006169008411 -286.1903848688129 1049.2918329576103 -271.9547215483738 1020.5229154833514L361.2049462944518 -258.9174705831682Z " transform="rotate(123, 400, 400)" opacity="0.83"></path><path d="M362.1511663722072 -242.84630829807952C377.6549229600316 -274.18110540578306 422.3450160048121 -274.18110540578306 437.8487725926366 -242.84630829807952L1055.5655217075882 1005.3882146936471C1069.4539737275293 1033.4554512538996 1049.0356793857843 1066.3474864254124 1017.7167185973738 1066.3474864254124H-217.71677963252995C-249.03574042094044 1066.3474864254124 -269.4540347626852 1033.4554512538996 -255.56558274274465 1005.3882146936471L362.1511663722072 -242.84630829807952Z " transform="rotate(120, 400, 400)" opacity="0.81"></path><path d="M363.09738644996264 -226.77514601299083C378.2135491230913 -257.32657319300176 421.78638984175245 -257.32657319300176 436.9025525148811 -226.77514601299083L1039.176382901959 990.2535139039423C1052.7176236214016 1017.6190695501889 1032.8097866382 1049.6888038424138 1002.2737998694997 1049.6888038424138H-202.27386090465615C-232.8098476733564 1049.6888038424138 -252.71768465655748 1017.6190695501889 -239.1764439371155 990.2535139039423L363.09738644996264 -226.77514601299083Z " transform="rotate(117, 400, 400)" opacity="0.79"></path><path d="M364.04357601013976 -210.70398372790214C378.77214476857296 -240.47204098022044 421.22773316111454 -240.47204098022044 435.95630191954774 -210.70398372790214L1022.7872135787516 975.1188131142378C1035.9812429976957 1001.782687846478 1016.583863373038 1033.0301212594152 986.830850624048 1033.0301212594152H-186.83097269436047C-216.58398544335046 1033.0301212594152 -235.98136506800796 1001.782687846478 -222.78733564906446 975.1188131142378L364.04357601013976 -210.70398372790214Z " transform="rotate(114, 400, 400)" opacity="0.77"></path><path d="M364.98982660547335 -194.6328214428134C379.33080144921075 -223.61750876743915 420.669137515633 -223.61750876743915 435.0101123593704 -194.6328214428134L1006.3981052907006 959.9841123245335C1019.2449234091464 985.9463061427671 1000.358001143032 1016.3714386764166 971.3879624137523 1016.3714386764166H-171.38802344890854C-200.35806217818822 1016.3714386764166 -219.24498444430213 985.9463061427671 -206.39816632585718 959.9841123245335L364.98982660547335 -194.6328214428134Z " transform="rotate(111, 400, 400)" opacity="0.75"></path><path d="M365.9360466832286 -178.5616591577247C379.88942761227054 -206.76297655465785 420.1105113525732 -206.76297655465785 434.06389228161515 -178.5616591577247L990.0089664850714 944.849411534829C1002.5085733030185 970.1099244390564 984.1321083954481 999.712756093418 955.9450436858785 999.712756093418H-155.9451047210348C-184.13216943060416 999.712756093418 -202.5086343381745 970.1099244390564 -190.00902752022802 944.849411534829L365.9360466832286 -178.5616591577247Z " transform="rotate(108, 400, 400)" opacity="0.73"></path><path d="M366.88226676098407 -162.490496872636C380.44805377533044 -189.90844434187656 419.5518851895133 -189.90844434187656 433.1176722038597 -162.490496872636L973.6198276794423 929.7147107451249C985.7722231968908 954.2735427353459 967.906215647864 983.0540735104196 940.5021249580047 983.0540735104196H-140.502185993161C-167.9062766830201 983.0540735104196 -185.7722842320468 954.2735427353459 -173.61988871459886 929.7147107451249L366.88226676098407 -162.490496872636Z " transform="rotate(105, 400, 400)" opacity="0.71"></path><path d="M367.8284868387394 -146.41945665785977C381.0066799383901 -173.05403419940777 418.99325902645364 -173.05403419940777 432.1714521261043 -146.41945665785977L957.2306888738133 914.5798878851078C969.0358730907631 938.4370389613225 951.6803229002796 966.3952688571085 925.0592062301309 966.3952688571085H-125.05926726528719C-151.68038393543605 966.3952688571085 -169.03593412591914 938.4370389613225 -157.2307499089697 914.5798878851078L367.8284868387394 -146.41945665785977Z " transform="rotate(102, 400, 400)" opacity="0.69"></path><path d="M368.7747069164948 -130.34827911398202C381.5653061014499 -156.1994867278374 418.43463286339386 -156.1994867278374 431.22523204834897 -130.34827911398202L940.841550068184 899.4452023541924C952.2995229846354 922.6006725164009 935.4544301526957 949.7366015328989 909.6162875022571 949.7366015328989H-109.61634853741339C-135.454491187852 949.7366015328989 -152.29958401979144 922.6006725164009 -140.84161110334054 899.4452023541924L368.7747069164948 -130.34827911398202Z " transform="rotate(99, 400, 400)" opacity="0.67"></path><path d="M369.72092699425 -114.27713208768236C382.1239322645097 -139.34496977384518 417.8760067003342 -139.34496977384518 430.2790119705936 -114.27713208768236L924.452411262555 884.3104863056988C935.5631728785077 906.7642755539009 919.2285374051116 933.0779036911113 894.1733687743833 933.0779036911113H-94.17342980953958C-119.22859844026794 933.0779036911113 -135.5632339136638 906.7642755539009 -124.45247229771132 884.3104863056988L369.72092699425 -114.27713208768236Z " transform="rotate(96, 400, 400)" opacity="0.65"></path><path d="M370.6671470720055 -98.20596980259367C382.68255842756935 -122.49043756106389 417.3173805372744 -122.49043756106389 429.33279189283826 -98.20596980259367L908.0632724569257 869.1757855159944C918.82682277238 890.9278938501902 903.0026446575275 916.4192211081127 878.7304500465095 916.4192211081127H-78.73051108166578C-103.00270569268389 916.4192211081127 -118.82688380753609 890.9278938501902 -108.06333349208217 869.1757855159944L370.6671470720055 -98.20596980259367Z " transform="rotate(93, 400, 400)" opacity="0.63"></path><path d="M371.61336714976085 -82.13476174113777C383.24118459062913 -105.6358595719154 416.7587543742146 -105.6358595719154 428.3865718150829 -82.13476174113777L891.6741336512964 854.0411305026571C902.0904726662525 875.0915579228467 886.7767519099436 899.7605843014812 863.2875313186357 899.7605843014812H-63.28759235379198C-86.77681294509983 899.7605843014812 -102.09053370140845 875.0915579228467 -91.674194686453 854.0411305026571L371.61336714976085 -82.13476174113777Z " transform="rotate(90, 400, 400)" opacity="0.61"></path><path d="M372.5595872275162 -66.06359945604908C383.7998107536889 -88.78132735913411 416.20012821115483 -88.78132735913411 427.44035173732755 -66.06359945604908L875.2849948456674 838.9064297129526C885.3541225601248 859.2551762191358 870.5508591623595 883.1019017184826 847.8446125907622 883.1019017184826H-47.844673625918176C-70.55092019751578 883.1019017184826 -85.35418359528074 859.2551762191358 -75.28505588082385 838.9064297129526L372.5595872275162 -66.06359945604908Z " transform="rotate(87, 400, 400)" opacity="0.59"></path><path d="M373.50580730527156 -49.99245242974942C384.3584369167486 -71.92681040514188 415.64150204809516 -71.92681040514188 426.4941316595722 -49.99245242974942L858.8958560400383 823.7717136644592C868.6177724539971 843.4187792566358 854.3249664147754 866.443203876695 832.4016938628881 866.443203876695H-32.40175489804443C-54.325027449931724 866.443203876695 -68.61783348915304 843.4187792566358 -58.89591707519469 823.7717136644592L373.50580730527156 -49.99245242974942Z " transform="rotate(84, 400, 400)" opacity="0.57"></path><path d="M374.4520273830269 -33.92127488587164C384.9170630798085 -55.07226293357152 415.08287588503526 -55.07226293357152 425.54791158181683 -33.92127488587164L842.5067172344093 808.6370281335437C851.8814223478694 827.5824128117142 838.0990736671915 849.7845365524854 816.9587751350143 849.7845365524854H-16.958836170170628C-38.09913470234767 849.7845365524854 -51.8814833830254 827.5824128117142 -42.50677826956553 808.6370281335437L374.4520273830269 -33.92127488587164Z " transform="rotate(81, 400, 400)" opacity="0.55"></path><path d="M375.3982474607824 -17.85011260078295C385.47568924286816 -38.21773072079023 414.5242497219756 -38.21773072079023 424.60169150406136 -17.85011260078295L826.11757842878 793.5023273438392C835.1450722417417 811.7460311080035 821.8731809196074 833.1258539694868 801.5158564071405 833.1258539694868H-1.515917442296825C-21.873241954763614 833.1258539694868 -35.145133276897695 811.7460311080035 -26.11763946393637 793.5023273438392L375.3982474607824 -17.85011260078295Z " transform="rotate(78, 400, 400)" opacity="0.53"></path><path d="M376.34446753853763 -1.7789655744832942C386.0343154059278 -21.363213766797998 413.9656235589159 -21.363213766797998 423.6554714263061 -1.7789655744832942L809.7284396231507 778.3676112953458C818.408722135614 795.9096341455036 805.6472881720233 816.4671561276991 786.0729376792669 816.4671561276991H13.927001285576978C-5.647349207179559 816.4671561276991 -18.40878317077005 795.9096341455036 -9.728500658307212 778.3676112953458L376.34446753853763 -1.7789655744832942Z " transform="rotate(75, 400, 400)" opacity="0.52"></path><path d="M377.2906876162931 14.292196710605424C386.5929415689877 -4.508681554016704 413.406997395856 -4.508681554016704 422.70925134855065 14.292196710605424L793.3393008175217 763.2329105056414C801.6723720294863 780.073252441793 789.4213954244392 799.8084735447005 770.6300189513931 799.8084735447005H29.36992001345078C10.578543540404496 799.8084735447005 -1.6724330646423482 780.073252441793 6.660638147321947 763.2329105056414L377.2906876162931 14.292196710605424Z " transform="rotate(72, 400, 400)" opacity="0.50"></path><path d="M378.23690769404834 30.36334373690505C387.1515677320474 12.345835399975527 412.84837123279635 12.345835399975527 421.7630312707954 30.36334373690505L776.9501620118924 748.0981944571478C784.9360219233586 764.236855479293 773.1955026768551 783.149775702913 755.1871002235192 783.149775702913H44.81283874132458C26.80443628798855 783.149775702913 15.063917041485297 764.236855479293 23.049776952951106 748.0981944571478L378.23690769404834 30.36334373690505Z " transform="rotate(69, 400, 400)" opacity="0.48"></path><path d="M379.1831277718038 46.43452128078283C387.7101938951073 29.200382871545884 412.28974506973645 29.200382871545884 420.81681119303994 46.43452128078283L760.5610232062634 732.9635089262324C768.1996718172309 748.4004890343714 756.9696099292712 766.4911083787034 739.7441814956453 766.4911083787034H60.255757469198386C43.030329035572606 766.4911083787034 31.800267147613 748.4004890343714 39.438915758580265 732.9635089262324L379.1831277718038 46.43452128078283Z " transform="rotate(66, 400, 400)" opacity="0.46"></path><path d="M380.12934784955917 62.50568356587152C388.26882005816697 46.05491508432718 411.7311189066768 46.05491508432718 419.8705911152846 62.50568356587152L744.1718844006342 717.828808136528C751.4633217111033 732.5641073306605 740.7437171816871 749.8324257957048 724.3012627677716 749.8324257957048H75.69867619707219C59.25622178315666 749.8324257957048 48.536617253740644 732.5641073306605 55.828054564209424 717.828808136528L380.12934784955917 62.50568356587152Z " transform="rotate(63, 400, 400)" opacity="0.44"></path><path d="M381.0755679273145 78.57684585096024C388.82744622122675 62.90944729710847 411.172492743617 62.90944729710847 418.9243710375292 78.57684585096024L727.782745595005 702.6941073468236C734.7269716049756 716.7277256269498 724.5178244341031 733.1737432127062 708.8583440398978 733.1737432127062H91.14159492494593C75.48211453074072 733.1737432127062 65.27296735986835 716.7277256269498 72.21719336983858 702.6941073468236L381.0755679273145 78.57684585096024Z " transform="rotate(60, 400, 400)" opacity="0.42"></path><path d="M382.021818522648 94.64800813604893C389.38610290186466 79.76397950988977 410.61389709813534 79.76397950988977 417.978181477352 94.64800813604893L711.3936373069539 687.5594065571189C717.990652016426 700.891343923239 708.2919622040971 716.5150606297076 693.4154558296021 716.5150606297076H106.58454417039786C91.7080377959029 716.5150606297076 82.00934798357417 700.891343923239 88.60636269304592 687.5594065571189L382.021818522648 94.64800813604893Z " transform="rotate(57, 400, 400)" opacity="0.40"></path><path d="M382.96800808282524 110.71917042113765C389.9446985473462 96.61851172267106 410.05524041749754 96.61851172267106 417.0319308820185 110.71917042113765L695.0044679837466 672.4247057674145C701.2542713927202 685.0549622195282 692.066038938935 699.856378046709 677.9725065841502 699.856378046709H122.02743238069354C107.93390002590883 699.856378046709 98.7456675721237 685.0549622195282 104.99547098109696 672.4247057674145L382.96800808282524 110.71917042113765Z " transform="rotate(54, 400, 400)" opacity="0.38"></path><path d="M383.9142281605807 126.79027167107012C390.503324710406 113.4729829002961 409.49661425443776 113.4729829002961 416.08571080426304 126.79027167107012L678.6153291781176 657.2899439425539C684.5179212865925 669.2185194806613 675.8401461913508 683.1976344285542 662.5295878562764 683.1976344285542H137.47035110856734C124.15979277349288 683.1976344285542 115.4820176782514 669.2185194806613 121.38460978672612 657.2899439425539L383.9142281605807 126.79027167107012Z " transform="rotate(51, 400, 400)" opacity="0.36"></path><path d="M384.8604787559141 142.8614339561588C391.0619813910439 130.3275151130774 408.9380186089561 130.3275151130774 415.1395212440859 142.8614339561588L662.2262208900665 642.1552431528494C667.7816016980429 653.3821377769505 659.6142839613449 666.5389518455556 647.0866996459807 666.5389518455556H152.91330035401927C140.38571603865506 666.5389518455556 132.21839830195717 653.3821377769505 137.7737791099334 642.1552431528494L384.8604787559141 142.8614339561588Z " transform="rotate(48, 400, 400)" opacity="0.34"></path><path d="M385.8066988336695 158.9326115000366C391.6206075541036 147.18206258464775 408.3793924458964 147.18206258464775 414.19330116633046 158.9326115000366L645.8370820844373 627.020557621934C651.0452515919153 637.5457713320288 643.3883912137609 649.8802845213461 631.6437809181069 649.8802845213461H168.35621908189307C156.61160878623912 649.8802845213461 148.95474840808487 637.5457713320288 154.16291791556256 627.020557621934L385.8066988336695 158.9326115000366Z " transform="rotate(45, 400, 400)" opacity="0.32"></path><path d="M386.7529036526358 175.0037737851253C392.1792184583743 164.03659479742905 407.8207510240476 164.03659479742905 413.24706582978615 175.0037737851253L629.4479280200192 611.8858568322296C634.3088862269985 621.7093896283179 627.1624832073877 633.2216019383475 616.2008469314441 633.2216019383475H183.7991225509778C172.8374862750341 633.2216019383475 165.69108325542345 621.7093896283179 170.55204146240266 611.8858568322296L386.7529036526358 175.0037737851253Z " transform="rotate(42, 400, 400)" opacity="0.30"></path><path d="M387.69913898918026 191.074936070214C392.73785988022314 180.89112701021037 407.26214011977686 180.89112701021037 412.30086101081974 191.074936070214L613.0588044731791 596.751156042525C617.5725513796599 605.8730079246072 610.9366057185928 616.5629193553489 600.7579434623593 616.5629193553489H199.24205653764068C189.06339428140723 616.5629193553489 182.42744862034021 605.8730079246072 186.94119552682088 596.751156042525L387.69913898918026 191.074936070214Z " transform="rotate(39, 400, 400)" opacity="0.28"></path><path d="M388.6453590669356 207.1460983553027C393.2964860432829 197.74565922299166 406.7035139567171 197.74565922299166 411.3546409330644 207.1460983553027L596.6696656675499 581.6164552528207C600.8362012735322 590.0366262208966 594.7107129710087 599.9042367723503 585.3150247344856 599.9042367723503H214.68497526551442C205.28928702899134 599.9042367723503 199.16379872646786 590.0366262208966 203.33033433245004 581.6164552528207L388.6453590669356 207.1460983553027Z " transform="rotate(36, 400, 400)" opacity="0.26"></path><path d="M389.59157914469097 223.2172606403914C393.8551122063427 214.60019143577296 406.1448877936573 214.60019143577296 410.40842085530903 223.2172606403914L580.2805268619207 566.4817544631162C584.0998511674045 574.2002445171856 578.4848202234247 583.2455541893517 569.8721060066117 583.2455541893517H230.12789399338823C221.5151797765754 583.2455541893517 215.90014883259556 574.2002445171856 219.7194731380792 566.4817544631162L389.59157914469097 223.2172606403914Z " transform="rotate(33, 400, 400)" opacity="0.24"></path><path d="M390.5377992224463 239.288392407902C394.41373836940244 231.45469313097612 405.58626163059756 231.45469313097612 409.4622007775537 239.288392407902L563.8913880562916 551.3470231558337C567.3635010612768 558.3638322958968 562.2589274758407 566.5868410887749 554.429187278738 566.5868410887749H245.57081272126203C237.74107252415945 566.5868410887749 232.6364989387232 558.3638322958968 236.10861194370835 551.3470231558337L390.5377992224463 239.288392407902Z " transform="rotate(30, 400, 400)" opacity="0.22"></path><path d="M391.4840193002017 255.3595546929907C394.97236453246217 248.30922534375742 405.02763546753783 248.30922534375742 408.5159806997983 255.3595546929907L547.5022492506623 536.2123223661291C550.6271509551491 542.5274505921859 546.0330347282566 549.9281585057763 538.9862685508642 549.9281585057763H261.01373144913583C253.9669652717435 549.9281585057763 249.3728490448509 542.5274505921859 252.4977507493375 536.2123223661291L391.4840193002017 255.3595546929907Z " transform="rotate(27, 400, 400)" opacity="0.21"></path><path d="M392.43023937795704 271.43071697807943C395.53099069552195 265.1637575565387 404.46900930447805 265.1637575565387 407.56976062204296 271.43071697807943L531.1131104450333 521.0776215764247C533.8908008490214 526.6910688884752 529.8071419806724 533.2694759227778 523.5433498229904 533.2694759227778H276.45665017700964C270.19285801932756 533.2694759227778 266.1091991509786 526.6910688884752 268.8868895549667 521.0776215764247L392.43023937795704 271.43071697807943Z " transform="rotate(24, 400, 400)" opacity="0.19"></path><path d="M393.3764594557124 287.50188689256265C396.0896168585817 282.01829739871454 403.9103831414183 282.01829739871454 406.6235405442876 287.50188689256265L514.7239716394041 505.9429284161148C517.1544507428938 510.85469481415896 513.5812492330883 516.6108009691737 508.10043109511656 516.6108009691737H291.89956890488344C286.4187507669116 516.6108009691737 282.84554925710626 510.85469481415896 285.27602836059583 505.9429284161148L393.3764594557124 287.50188689256265Z " transform="rotate(21, 400, 400)" opacity="0.17"></path><path d="M394.3226795334678 303.5730568070459C396.64824302164146 298.87283724089036 403.35175697835854 298.87283724089036 405.6773204665322 303.5730568070459L498.33483283377495 490.8082352558049C500.4181006367661 495.0183207398428 497.35535648550433 499.95212601556966 492.6575123672428 499.95212601556966H307.34248763275724C302.64464351449567 499.95212601556966 299.58189936323396 495.0183207398428 301.66516716622505 490.8082352558049L394.3226795334678 303.5730568070459Z " transform="rotate(18, 400, 400)" opacity="0.15"></path><path d="M395.26889961122316 319.64419620395097C397.2068691847012 315.72734656548806 402.7931308152988 315.72734656548806 404.73110038877684 319.64419620395097L481.9456940281458 475.6735115779168C483.6817505306384 479.1819161479484 481.12946373792033 483.29342054438746 477.214593639369 483.29342054438746H322.78540636063104C318.8705362620797 483.29342054438746 316.3182494693616 479.1819161479484 318.0543059718542 475.6735115779168L395.26889961122316 319.64419620395097Z " transform="rotate(15, 400, 400)" opacity="0.13"></path><path d="M396.2151196889785 335.7153584890397C397.765495347761 332.58187877826936 402.234504652239 332.58187877826936 403.7848803110215 335.7153584890397L465.55655522251664 460.53881078821234C466.9454004245107 463.3455344442376 464.9035709903362 466.6347379613889 461.7716749114952 466.6347379613889H338.2283250885048C335.0964290096638 466.6347379613889 333.0545995754893 463.3455344442376 334.44344477748336 460.53881078821234L396.2151196889785 335.7153584890397Z " transform="rotate(12, 400, 400)" opacity="0.11"></path><path d="M397.1613397667339 351.78652840352294C398.3241215108207 349.4364186204452 401.6758784891793 349.4364186204452 402.8386602332661 351.78652840352294L449.1674164168875 445.40411762790245C450.20905031838305 447.5091603699214 448.67767824275217 449.97606300778483 446.3287561836214 449.97606300778483H353.6712438163786C351.32232175724783 449.97606300778483 349.79094968161695 447.5091603699214 350.8325835831125 445.40411762790245L397.1613397667339 351.78652840352294Z " transform="rotate(9, 400, 400)" opacity="0.09"></path><path d="M398.1075598444893 367.8576906886117C398.8827476738805 366.2909508332265 401.1172523261195 366.2909508332265 401.8924401555107 367.8576906886117L432.7782776112583 430.26941683819797C433.47270021225535 431.6727786662106 432.4517854951681 433.3173804247863 430.8858374557476 433.3173804247863H369.1141625442524C367.5482145048319 433.3173804247863 366.52729978774465 431.6727786662106 367.2217223887417 430.26941683819797L398.1075598444893 367.8576906886117Z " transform="rotate(6, 400, 400)" opacity="0.07"></path><path d="M399.05377992224464 383.9288377149113C399.4413738369402 383.1454677872187 400.5586261630598 383.1454677872187 400.94622007775536 383.9288377149113L416.38913880562916 415.1347007897045C416.7363501061277 415.8363817037108 416.22589274758406 416.6586825829986 415.4429187278738 416.6586825829986H384.5570812721262C383.77410725241594 416.6586825829986 383.2636498938723 415.8363817037108 383.61086119437084 415.1347007897045L399.05377992224464 383.9288377149113Z " transform="rotate(3, 400, 400)" opacity="0.05"></path></g></svg>